<mxfile host="Electron" modified="2024-05-19T16:33:03.329Z" agent="Mozilla/5.0 (Windows NT 10.0; Win64; x64) AppleWebKit/537.36 (KHTML, like Gecko) draw.io/24.4.0 Chrome/120.0.6099.109 Electron/28.1.0 Safari/537.36" version="24.4.0" etag="jS84qwnpqLj2VTxQjNOk" type="device">
  <diagram id="-9SgmEnkkTEJJTNnR55M" name="Страница — 1">
    <mxGraphModel dx="1807" dy="2320" grid="1" gridSize="10" guides="1" tooltips="1" connect="1" arrows="1" fold="1" page="0" pageScale="1" pageWidth="827" pageHeight="1169" background="none" math="0" shadow="0">
      <root>
        <mxCell id="0" />
        <mxCell id="1" parent="0" />
        <mxCell id="node2" value="&lt;p style=&quot;margin:0px;margin-top:4px;text-align:center;&quot;&gt;&lt;b&gt;CardViewService&lt;/b&gt;&lt;/p&gt;&lt;hr size=&quot;1&quot;&gt;&lt;p style=&quot;margin:0 0 0 4px;line-height:1.6;&quot;&gt;+ findByObjectType(ObjectTypeEntity): List&amp;lt;CardViewEntity&amp;gt;&lt;br&gt;+ getNextCardVersion(ObjectTypeEntity): long&lt;br&gt;+ findWithExceptFilter(EntityCondition, SortFields, LimitOffset, Long, Long, Integer): List&amp;lt;CardViewEntity&amp;gt;&lt;br&gt;+ find(EntityCondition, SortFields, LimitOffset): List&amp;lt;CardViewEntity&amp;gt;&lt;br&gt;+ getCardViewDocumentType(EntityCondition, SortFields, LimitOffset): List&amp;lt;CardViewEntity&amp;gt;&lt;br&gt;+ delete(Long): void&lt;br&gt;+ findById(Long): CardViewEntity&lt;br&gt;+ create(CardViewEntity): CardViewEntity&lt;br&gt;+ findChild(Long): List&amp;lt;CardViewEntity&amp;gt;&lt;br&gt;+ createVersion(CardViewEntity): CardViewEntity&lt;br&gt;+ update(CardViewEntity): CardViewEntity&lt;br&gt;+ countAll(EntityCondition): int&lt;br&gt;+ countAllWithExceptFilter(EntityCondition, Long, Long, Integer): int&lt;br&gt;+ createChild(Long, CardViewEntity): CardViewEntity&lt;br&gt;+ countDocuments(EntityCondition): int&lt;br&gt;+ findByObjectType(ObjectTypeEntity, EntityCondition, SortFields, LimitOffset): List&amp;lt;CardViewEntity&amp;gt;&lt;br&gt;+ findByObjectTypeId(Long): List&amp;lt;CardViewEntity&amp;gt;&lt;/p&gt;" style="verticalAlign=top;align=left;overflow=fill;fontSize=14;fontFamily=Helvetica;html=1;rounded=0;shadow=0;comic=0;labelBackgroundColor=none;strokeWidth=1;" parent="1" vertex="1">
          <mxGeometry x="2310" y="-480" width="483" height="415" as="geometry" />
        </mxCell>
        <mxCell id="node5" value="&lt;p style=&quot;margin:0px;margin-top:4px;text-align:center;&quot;&gt;&lt;b&gt;CauseService&lt;/b&gt;&lt;/p&gt;&lt;hr size=&quot;1&quot;/&gt;&lt;p style=&quot;margin:0 0 0 4px;line-height:1.6;&quot;&gt;+ deleteCause(Long): void&lt;br/&gt;- registerListeners(): void&lt;br/&gt;+ countByServiceId(Long, EntityCondition): int&lt;br/&gt;+ exists(Long): boolean&lt;br/&gt;+ count(EntityCondition): int&lt;br/&gt;+ updateCause(CauseEntity): CauseEntity&lt;br/&gt;+ findByServiceId(Long, SortFields, LimitOffset, EntityCondition): List&amp;lt;CauseEntity&amp;gt;&lt;br/&gt;+ createCause(Long, CauseEntity): CauseEntity&lt;br/&gt;+ countRequestByCauseId(Long): int&lt;br/&gt;+ findAll(SortFields, LimitOffset, EntityCondition): List&amp;lt;CauseEntity&amp;gt;&lt;br/&gt;+ getCause(Long): CauseEntity&lt;/p&gt;" style="verticalAlign=top;align=left;overflow=fill;fontSize=14;fontFamily=Helvetica;html=1;rounded=0;shadow=0;comic=0;labelBackgroundColor=none;strokeWidth=1;" parent="1" vertex="1">
          <mxGeometry x="1503" y="-30" width="449" height="274" as="geometry" />
        </mxCell>
        <mxCell id="node3" value="&lt;p style=&quot;margin:0px;margin-top:4px;text-align:center;&quot;&gt;&lt;b&gt;DtoMapper&lt;/b&gt;&lt;/p&gt;&lt;hr size=&quot;1&quot;/&gt;&lt;p style=&quot;margin:0 0 0 4px;line-height:1.6;&quot;&gt;+ map(Object, Object, MappingParameters): void&lt;/p&gt;" style="verticalAlign=top;align=left;overflow=fill;fontSize=14;fontFamily=Helvetica;html=1;rounded=0;shadow=0;comic=0;labelBackgroundColor=none;strokeWidth=1;" parent="1" vertex="1">
          <mxGeometry x="1404" y="-133" width="293" height="58" as="geometry" />
        </mxCell>
        <mxCell id="node6" value="&lt;p style=&quot;margin:0px;margin-top:4px;text-align:center;&quot;&gt;&lt;b&gt;ObjectPermissionsService&lt;/b&gt;&lt;/p&gt;&lt;hr size=&quot;1&quot;/&gt;&lt;p style=&quot;margin:0 0 0 4px;line-height:1.6;&quot;&gt;+ checkPermission(Integer, PermissionType): boolean&lt;br/&gt;- checkPrivilege(Set&amp;lt;PrivilegeEntity&amp;gt;, PrivilegeEntity): boolean&lt;br/&gt;- removePrivilege(Set&amp;lt;PrivilegeEntity&amp;gt;, PrivilegeEntity): void&lt;br/&gt;+ removeRolePermissionsForObject(PrivilegeCategory, Long, Long): void&lt;br/&gt;+ getPermissionsForObject(PrivilegeCategory, Long): Map&amp;lt;RoleEntity, Integer&amp;gt;&lt;br/&gt;+ updateRolePermissionsForObject(PrivilegeCategory, Long, Long, Integer): void&lt;br/&gt;+ removePermissionsForObject(PrivilegeCategory, Long): void&lt;/p&gt;" style="verticalAlign=top;align=left;overflow=fill;fontSize=14;fontFamily=Helvetica;html=1;rounded=0;shadow=0;comic=0;labelBackgroundColor=none;strokeWidth=1;" parent="1" vertex="1">
          <mxGeometry x="1502" y="273" width="450" height="186" as="geometry" />
        </mxCell>
        <mxCell id="node8" value="&lt;p style=&quot;margin:0px;margin-top:4px;text-align:center;&quot;&gt;&lt;b&gt;ObjectTypeService&lt;/b&gt;&lt;/p&gt;&lt;hr size=&quot;1&quot;&gt;&lt;p style=&quot;margin:0 0 0 4px;line-height:1.6;&quot;&gt;+ validate(Long): boolean&lt;br&gt;+ getObjectAttributes(Long, EntityCondition, SortFields, LimitOffset): List&amp;lt;ObjectAttributeEntity&amp;gt;&lt;br&gt;+ countAttr(Long, EntityCondition): int&lt;br&gt;+ checkBeforeCreate(ObjectTypeEntity): void&lt;br&gt;+ countAllWithExceptFilter(EntityCondition, Integer): int&lt;br&gt;+ deleteObjectType(Long): void&lt;br&gt;+ findWithExceptFilter(LimitOffset, EntityCondition, SortFields, Integer): List&amp;lt;ObjectTypeEntity&amp;gt;&lt;br&gt;+ findByTableName(String): ObjectTypeEntity&lt;br&gt;+ find(LimitOffset, EntityCondition, SortFields): List&amp;lt;ObjectTypeEntity&amp;gt;&lt;br&gt;+ save(ObjectTypeEntity): ObjectTypeEntity&lt;br&gt;+ clearCache(): void&lt;br&gt;+ createDbTable(ObjectTypeEntity): void&lt;br&gt;+ checkTableName(String): void&lt;br&gt;+ count(EntityCondition): int&lt;br&gt;+ updateDbTable(ObjectTypeEntity): void&lt;br&gt;+ findById(Long): ObjectTypeEntity&lt;br&gt;&lt;/p&gt;" style="verticalAlign=top;align=left;overflow=fill;fontSize=14;fontFamily=Helvetica;html=1;rounded=0;shadow=0;comic=0;labelBackgroundColor=none;strokeWidth=1;" parent="1" vertex="1">
          <mxGeometry x="2400" y="1260" width="501" height="404" as="geometry" />
        </mxCell>
        <mxCell id="node9" value="&lt;p style=&quot;margin:0px;margin-top:4px;text-align:center;&quot;&gt;&lt;b&gt;ReglamentService&lt;/b&gt;&lt;/p&gt;&lt;hr size=&quot;1&quot;&gt;&lt;p style=&quot;margin:0 0 0 4px;line-height:1.6;&quot;&gt;+ getById(Long): ReglamentEntity&lt;br&gt;+ save(ReglamentEntity): ReglamentEntity&lt;br&gt;+ delete(Long): void&lt;br&gt;+ find(LimitOffset, EntityCondition, SortFields): List&amp;lt;ReglamentEntity&amp;gt;&lt;br&gt;+ count(EntityCondition): int&lt;/p&gt;" style="verticalAlign=top;align=left;overflow=fill;fontSize=14;fontFamily=Helvetica;html=1;rounded=0;shadow=0;comic=0;labelBackgroundColor=none;strokeWidth=1;" parent="1" vertex="1">
          <mxGeometry x="1930" y="1070" width="403" height="153" as="geometry" />
        </mxCell>
        <mxCell id="node0" value="&lt;p style=&quot;margin:0px;margin-top:4px;text-align:center;&quot;&gt;&lt;b&gt;ServiceController&lt;/b&gt;&lt;/p&gt;&lt;hr size=&quot;1&quot;&gt;&lt;p style=&quot;margin:0 0 0 4px;line-height:1.6;&quot;&gt;+ addProviderToService(Long, ProviderDTO): ProviderDTO&lt;br&gt;+ getServiceCauses(Long, EntityCondition, SortFields, LimitOffset): ResponseListDTO&amp;lt;CauseDTO&amp;gt;&lt;br&gt;+ getProvidedDocumentTypes(Long, EntityCondition, SortFields, LimitOffset): ResponseListDTO&amp;lt;ServiceDocumentDTO&amp;gt;&lt;br&gt;+ getServiceCards(Long): List&amp;lt;CardViewDTO&amp;gt;&lt;br&gt;+ createService(ServiceDTO): ServiceDTO&lt;br&gt;+ updateServiceDoc(Long, Long, ServiceDocumentDTO): ServiceDocumentDTO&lt;br&gt;+ addReglamentToService(Long, ReglamentDTO): ReglamentDTO&lt;br&gt;+ getServiceRights(Long): List&amp;lt;RolePermissionsDTO&amp;gt;&lt;br&gt;+ getServicesPublic(EntityCondition, SortFields, LimitOffset): ResponseListDTO&amp;lt;ServiceDTO&amp;gt;&lt;br&gt;+ getDocumentTypesOld(Long, EntityCondition, SortFields, LimitOffset): ResponseListDTO&amp;lt;ServiceDocumentDTO&amp;gt;&lt;br&gt;+ getStatusesByServiceId(Long): List&amp;lt;StatusDTO&amp;gt;&lt;br&gt;+ addServiceDoc(Long, ServiceDocumentDTO): ServiceDocumentDTO&lt;br&gt;+ deleteDurationFromService(Long, Long): void&lt;br&gt;+ createServiceRights(Long, RolePermissionsDTO): RolePermissionsDTO&lt;br&gt;+ getServicePublic(Long): ServiceDTO&lt;br&gt;+ addStatusGroupToService(Long, StatusGroupDTO): StatusGroupDTO&lt;br&gt;+ getAttributes(Long, EntityCondition, SortFields, LimitOffset): List&amp;lt;ObjectAttributeDTO&amp;gt;&lt;br&gt;+ deleteServiceDoc(Long, Long): void&lt;br&gt;+ changeServiceState(Long, int): void&lt;br&gt;+ removeServiceProvider(Long, Long): ResponseListDTO&amp;lt;ProviderDTO&amp;gt;&lt;br&gt;+ updateAttribute(Long, ObjectAttributeDTO): ObjectAttributeDTO&lt;br&gt;+ addDurationToService(Long, ServiceDurationDTO): ServiceDurationDTO&lt;br&gt;+ deleteService(Long): void&lt;br&gt;+ getResultDocumentTypes(Long, EntityCondition, SortFields, LimitOffset): ResponseListDTO&amp;lt;ServiceDocumentDTO&amp;gt;&lt;br&gt;+ getServiceCause(Long, Long): CauseDTO&lt;br&gt;+ updateServiceCause(Long, CauseDTO): CauseDTO&lt;br&gt;+ deleteReglamentToService(Long): void&lt;br&gt;+ getServiceProvidersAvailable(Long): ResponseListDTO&amp;lt;ProviderDTO&amp;gt;&lt;br&gt;+ updateServiceDuration(Long, ServiceDurationDTO): ServiceDurationDTO&lt;br&gt;+ addAttribute(Long, ObjectAttributeDTO): ObjectAttributeDTO&lt;br&gt;+ deleteAttribute(Long, Long): void&lt;br&gt;+ getAttributeById(Long, Long): ObjectAttributeDTO&lt;br&gt;+ updateService(Long, ServiceDTO): ServiceDTO&lt;br&gt;+ getService(Long): ServiceDTO&lt;br&gt;+ getServiceProviders(Long): ResponseListDTO&amp;lt;ProviderDTO&amp;gt;&lt;br&gt;+ getServicesAvailable(SortFields, EntityCondition): ResponseListDTO&amp;lt;ServiceDTO&amp;gt;&lt;br&gt;+ getServices(SortFields, LimitOffset, EntityCondition): ResponseListDTO&amp;lt;ServiceDTO&amp;gt;&lt;br&gt;+ removeServiceRights(Long, Long): void&lt;br&gt;+ createServiceCause(Long, CauseDTO): CauseDTO&lt;/p&gt;" style="verticalAlign=top;align=left;overflow=fill;fontSize=14;fontFamily=Helvetica;html=1;rounded=0;shadow=0;comic=0;labelBackgroundColor=none;strokeWidth=1;" parent="1" vertex="1">
          <mxGeometry x="2002" width="572" height="919" as="geometry" />
        </mxCell>
        <mxCell id="node7" value="&lt;p style=&quot;margin:0px;margin-top:4px;text-align:center;&quot;&gt;&lt;b&gt;ServiceDocumentService&lt;/b&gt;&lt;/p&gt;&lt;hr size=&quot;1&quot;/&gt;&lt;p style=&quot;margin:0 0 0 4px;line-height:1.6;&quot;&gt;+ getServiceDocuments(Long, List&amp;lt;DocumentCategory&amp;gt;): List&amp;lt;ServiceDocumentEntity&amp;gt;&lt;br/&gt;+ update(ServiceDocumentEntity): ServiceDocumentEntity&lt;br/&gt;+ createServiceDocument(ServiceDocumentEntity): ServiceDocumentEntity&lt;br/&gt;+ getServiceDocuments(Long, EntityCondition, SortFields, LimitOffset): List&amp;lt;ServiceDocumentEntity&amp;gt;&lt;br/&gt;+ getServiceDocuments(Long, List&amp;lt;DocumentCategory&amp;gt;, EntityCondition, SortFields, LimitOffset): List&amp;lt;ServiceDocumentEntity&amp;gt;&lt;br/&gt;+ getAvailableServiceDocuments(Long, List&amp;lt;DocumentCategory&amp;gt;, SortFields): List&amp;lt;ServiceDocumentEntity&amp;gt;&lt;br/&gt;+ getServiceDocuments(EntityCondition, SortFields, LimitOffset): List&amp;lt;ServiceDocumentEntity&amp;gt;&lt;br/&gt;+ findById(Long): ServiceDocumentEntity&lt;br/&gt;+ getServiceDocuments(Long): List&amp;lt;ServiceDocumentEntity&amp;gt;&lt;br/&gt;+ deleteById(Long): void&lt;br/&gt;- registerListeners(): void&lt;/p&gt;" style="verticalAlign=top;align=left;overflow=fill;fontSize=14;fontFamily=Helvetica;html=1;rounded=0;shadow=0;comic=0;labelBackgroundColor=none;strokeWidth=1;" parent="1" vertex="1">
          <mxGeometry x="1370" y="906" width="524" height="284" as="geometry" />
        </mxCell>
        <mxCell id="node1" value="&lt;p style=&quot;margin:0px;margin-top:4px;text-align:center;&quot;&gt;&lt;b&gt;ServiceDurationService&lt;/b&gt;&lt;/p&gt;&lt;hr size=&quot;1&quot;/&gt;&lt;p style=&quot;margin:0 0 0 4px;line-height:1.6;&quot;&gt;+ findById(Long): ServiceDurationEntity&lt;br/&gt;+ delete(ServiceDurationEntity): void&lt;br/&gt;+ update(ServiceDurationEntity): ServiceDurationEntity&lt;br/&gt;+ delete(Long): void&lt;br/&gt;+ create(ServiceDurationEntity): ServiceDurationEntity&lt;br/&gt;+ count(EntityCondition): int&lt;br/&gt;+ findAll(EntityCondition, SortFields, LimitOffset): List&amp;lt;ServiceDurationEntity&amp;gt;&lt;br/&gt;- registerListeners(): void&lt;br/&gt;+ findDurationsByService(Long, EntityCondition, SortFields, LimitOffset): List&amp;lt;ServiceDurationEntity&amp;gt;&lt;/p&gt;" style="verticalAlign=top;align=left;overflow=fill;fontSize=14;fontFamily=Helvetica;html=1;rounded=0;shadow=0;comic=0;labelBackgroundColor=none;strokeWidth=1;" parent="1" vertex="1">
          <mxGeometry x="1421" y="570" width="483" height="230" as="geometry" />
        </mxCell>
        <mxCell id="node4" value="&lt;p style=&quot;margin:0px;margin-top:4px;text-align:center;&quot;&gt;&lt;b&gt;ServiceService&lt;/b&gt;&lt;/p&gt;&lt;hr size=&quot;1&quot;/&gt;&lt;p style=&quot;margin:0 0 0 4px;line-height:1.6;&quot;&gt;+ getAvaliableServiceEntity(EntityCondition, SortFields, LimitOffset): List&amp;lt;ServiceEntity&amp;gt;&lt;br/&gt;+ updateService(ServiceEntity): ServiceEntity&lt;br/&gt;+ addProvider(Long, Long): ProviderEntity&lt;br/&gt;- isAvaliableService(ServiceEntity, SystemUser): boolean&lt;br/&gt;+ createService(ServiceEntity): ServiceEntity&lt;br/&gt;+ findByServiceId(Long): List&amp;lt;ProviderEntity&amp;gt;&lt;br/&gt;+ getService(Long): ServiceEntity&lt;br/&gt;+ changeState(Long, int): void&lt;br/&gt;+ count(EntityCondition): int&lt;br/&gt;+ isAvaliableService(ServiceEntity): boolean&lt;br/&gt;+ deleteService(Long): void&lt;br/&gt;- createCardView(ServiceEntity): CardViewEntity&lt;br/&gt;+ findByProviderId(Long, EntityCondition, SortFields, LimitOffset): List&amp;lt;ServiceEntity&amp;gt;&lt;br/&gt;- registerListeners(): void&lt;br/&gt;+ countByReglamentId(Long): int&lt;br/&gt;+ searchByText(String): List&amp;lt;ServiceEntity&amp;gt;&lt;br/&gt;+ find(EntityCondition, SortFields, LimitOffset): List&amp;lt;ServiceEntity&amp;gt;&lt;br/&gt;+ existById(Long): boolean&lt;/p&gt;" style="verticalAlign=top;align=left;overflow=fill;fontSize=14;fontFamily=Helvetica;html=1;rounded=0;shadow=0;comic=0;labelBackgroundColor=none;strokeWidth=1;" parent="1" vertex="1">
          <mxGeometry x="1660" y="1270" width="453" height="428" as="geometry" />
        </mxCell>
        <mxCell id="node10" value="&lt;p style=&quot;margin:0px;margin-top:4px;text-align:center;&quot;&gt;&lt;b&gt;StatusService&lt;/b&gt;&lt;/p&gt;&lt;hr size=&quot;1&quot;&gt;&lt;p style=&quot;margin:0 0 0 4px;line-height:1.6;&quot;&gt;+ delete(Long): void&lt;br&gt;+ checkBeforeSave(RequestEntity, StatusPathEntity, Boolean, UserEntity): List&amp;lt;String&amp;gt;&lt;br&gt;+ findById(Long): StatusEntity&lt;br&gt;+ findAll(EntityCondition, SortFields, LimitOffset): List&amp;lt;StatusEntity&amp;gt;&lt;br&gt;+ count(EntityCondition): int&lt;br&gt;+ getStatusPath(Long, Long, Long): StatusPathEntity&lt;br&gt;+ doAfterStatusChange(RequestEntity, StatusPathEntity): void&lt;br&gt;+ findAll(): List&amp;lt;StatusEntity&amp;gt;&lt;br&gt;+ getStatusesByService(Long): List&amp;lt;StatusEntity&amp;gt;&lt;br&gt;+ update(StatusEntity): StatusEntity&lt;br&gt;+ getStatusPathsByService(Long): List&amp;lt;StatusPathEntity&amp;gt;&lt;br&gt;+ create(StatusEntity): StatusEntity&lt;br&gt;+ findByName(String): StatusEntity&lt;br&gt;+ addStatusHistory(RequestEntity, UserEntity): void&lt;br&gt;&lt;/p&gt;" style="verticalAlign=top;align=left;overflow=fill;fontSize=14;fontFamily=Helvetica;html=1;rounded=0;shadow=0;comic=0;labelBackgroundColor=none;strokeWidth=1;" parent="1" vertex="1">
          <mxGeometry x="1630" y="-500" width="419" height="351" as="geometry" />
        </mxCell>
        <mxCell id="edge9" value="" style="html=1;rounded=1;edgeStyle=orthogonalEdgeStyle;dashed=0;startArrow=diamondThinstartSize=12;endArrow=openThin;endSize=12;strokeColor=#595959;exitX=0.750;exitY=0.000;exitDx=0;exitDy=0;entryX=0.953;entryY=0.997;entryDx=0;entryDy=0;entryPerimeter=0;" parent="1" source="node8" target="node2" edge="1">
          <mxGeometry width="50" height="50" relative="1" as="geometry">
            <Array as="points">
              <mxPoint x="2770" y="1260" />
              <mxPoint x="2770" y="-66" />
            </Array>
            <mxPoint x="2770" y="-80" as="targetPoint" />
          </mxGeometry>
        </mxCell>
        <mxCell id="label59" value="cardViewService" style="edgeLabel;resizable=0;html=1;align=left;verticalAlign=top;strokeColor=default;" parent="edge9" vertex="1" connectable="0">
          <mxGeometry x="2780" y="550" as="geometry" />
        </mxCell>
        <mxCell id="edge11" value="" style="html=1;rounded=1;edgeStyle=orthogonalEdgeStyle;dashed=0;startArrow=diamondThinstartSize=12;endArrow=openThin;endSize=12;strokeColor=#595959;exitX=1.000;exitY=0.500;exitDx=0;exitDy=0;" parent="1" source="node9" target="node4" edge="1">
          <mxGeometry width="50" height="50" relative="1" as="geometry">
            <Array as="points" />
          </mxGeometry>
        </mxCell>
        <mxCell id="label66" value="1" style="edgeLabel;resizable=0;html=1;align=left;verticalAlign=top;strokeColor=default;" parent="edge11" vertex="1" connectable="0">
          <mxGeometry x="1864" y="1340" as="geometry" />
        </mxCell>
        <mxCell id="label70" value="1" style="edgeLabel;resizable=0;html=1;align=left;verticalAlign=top;strokeColor=default;" parent="edge11" vertex="1" connectable="0">
          <mxGeometry x="1977" y="1340" as="geometry" />
        </mxCell>
        <mxCell id="label71" value="serviceService" style="edgeLabel;resizable=0;html=1;align=left;verticalAlign=top;strokeColor=default;" parent="edge11" vertex="1" connectable="0">
          <mxGeometry x="2290" y="1370" as="geometry" />
        </mxCell>
        <mxCell id="edge1" value="" style="html=1;rounded=1;edgeStyle=orthogonalEdgeStyle;dashed=0;startArrow=diamondThinstartSize=12;endArrow=openThin;endSize=12;strokeColor=#595959;entryX=0.000;entryY=0.500;entryDx=0;entryDy=0;exitX=0.457;exitY=0;exitDx=0;exitDy=0;exitPerimeter=0;" parent="1" source="node0" target="node2" edge="1">
          <mxGeometry width="50" height="50" relative="1" as="geometry">
            <Array as="points" />
            <mxPoint x="2610" y="300" as="sourcePoint" />
          </mxGeometry>
        </mxCell>
        <mxCell id="label11" value="cardViewService" style="edgeLabel;resizable=0;html=1;align=left;verticalAlign=top;strokeColor=default;" parent="edge1" vertex="1" connectable="0">
          <mxGeometry x="2220" y="-120" as="geometry" />
        </mxCell>
        <mxCell id="edge4" value="" style="html=1;rounded=1;edgeStyle=orthogonalEdgeStyle;dashed=0;startArrow=diamondThinstartSize=12;endArrow=openThin;endSize=12;strokeColor=#595959;exitX=0.100;exitY=0.000;exitDx=0;exitDy=0;entryX=0.500;entryY=0.000;entryDx=0;entryDy=0;" parent="1" source="node0" target="node5" edge="1">
          <mxGeometry width="50" height="50" relative="1" as="geometry">
            <Array as="points">
              <mxPoint x="2059" y="-60" />
              <mxPoint x="1727" y="-60" />
            </Array>
          </mxGeometry>
        </mxCell>
        <mxCell id="label24" value="1" style="edgeLabel;resizable=0;html=1;align=left;verticalAlign=top;strokeColor=default;" parent="edge4" vertex="1" connectable="0">
          <mxGeometry x="2090" y="-400" as="geometry" />
        </mxCell>
        <mxCell id="label28" value="1" style="edgeLabel;resizable=0;html=1;align=left;verticalAlign=top;strokeColor=default;" parent="edge4" vertex="1" connectable="0">
          <mxGeometry x="1716" y="-54" as="geometry" />
        </mxCell>
        <mxCell id="label29" value="causeService" style="edgeLabel;resizable=0;html=1;align=left;verticalAlign=top;strokeColor=default;" parent="edge4" vertex="1" connectable="0">
          <mxGeometry x="1727" y="-54" as="geometry" />
        </mxCell>
        <mxCell id="edge2" value="" style="html=1;rounded=1;edgeStyle=orthogonalEdgeStyle;dashed=0;startArrow=diamondThinstartSize=12;endArrow=openThin;endSize=12;strokeColor=#595959;exitX=0.300;exitY=0.000;exitDx=0;exitDy=0;entryX=1;entryY=0.5;entryDx=0;entryDy=0;" parent="1" source="node0" target="node3" edge="1">
          <mxGeometry width="50" height="50" relative="1" as="geometry">
            <Array as="points">
              <mxPoint x="2174" y="-104" />
            </Array>
          </mxGeometry>
        </mxCell>
        <mxCell id="label12" value="1" style="edgeLabel;resizable=0;html=1;align=left;verticalAlign=top;strokeColor=default;" parent="edge2" vertex="1" connectable="0">
          <mxGeometry x="2163" y="-208" as="geometry" />
        </mxCell>
        <mxCell id="label16" value="1" style="edgeLabel;resizable=0;html=1;align=left;verticalAlign=top;strokeColor=default;" parent="edge2" vertex="1" connectable="0">
          <mxGeometry x="1540" y="-162" as="geometry" />
        </mxCell>
        <mxCell id="label17" value="dtoMapper" style="edgeLabel;resizable=0;html=1;align=left;verticalAlign=top;strokeColor=default;" parent="edge2" vertex="1" connectable="0">
          <mxGeometry x="1551" y="-157" as="geometry" />
        </mxCell>
        <mxCell id="edge5" value="" style="html=1;rounded=1;edgeStyle=orthogonalEdgeStyle;dashed=0;startArrow=diamondThinstartSize=12;endArrow=openThin;endSize=12;strokeColor=#595959;exitX=0.000;exitY=0.500;exitDx=0;exitDy=0;entryX=1.000;entryY=0.500;entryDx=0;entryDy=0;" parent="1" source="node0" target="node6" edge="1">
          <mxGeometry width="50" height="50" relative="1" as="geometry">
            <Array as="points" />
          </mxGeometry>
        </mxCell>
        <mxCell id="label30" value="1" style="edgeLabel;resizable=0;html=1;align=left;verticalAlign=top;strokeColor=default;" parent="edge5" vertex="1" connectable="0">
          <mxGeometry x="1984" y="347" as="geometry" />
        </mxCell>
        <mxCell id="label34" value="1" style="edgeLabel;resizable=0;html=1;align=left;verticalAlign=top;strokeColor=default;" parent="edge5" vertex="1" connectable="0">
          <mxGeometry x="1959" y="347" as="geometry" />
        </mxCell>
        <mxCell id="label35" value="objectPermissionsService" style="edgeLabel;resizable=0;html=1;align=left;verticalAlign=top;strokeColor=default;" parent="edge5" vertex="1" connectable="0">
          <mxGeometry x="1878" y="366" as="geometry" />
        </mxCell>
        <mxCell id="edge7" value="" style="html=1;rounded=1;edgeStyle=orthogonalEdgeStyle;dashed=0;startArrow=diamondThinstartSize=12;endArrow=openThin;endSize=12;strokeColor=#595959;" parent="1" source="node0" target="node8" edge="1">
          <mxGeometry width="50" height="50" relative="1" as="geometry">
            <Array as="points">
              <mxPoint x="2470" y="930" />
              <mxPoint x="2650" y="930" />
            </Array>
            <mxPoint x="2460" y="930" as="sourcePoint" />
          </mxGeometry>
        </mxCell>
        <mxCell id="label42" value="1" style="edgeLabel;resizable=0;html=1;align=left;verticalAlign=top;strokeColor=default;" parent="edge7" vertex="1" connectable="0">
          <mxGeometry x="2443" y="922" as="geometry" />
        </mxCell>
        <mxCell id="label46" value="1" style="edgeLabel;resizable=0;html=1;align=left;verticalAlign=top;strokeColor=default;" parent="edge7" vertex="1" connectable="0">
          <mxGeometry x="2644" y="922" as="geometry" />
        </mxCell>
        <mxCell id="label47" value="objectTypeService" style="edgeLabel;resizable=0;html=1;align=left;verticalAlign=top;strokeColor=default;" parent="edge7" vertex="1" connectable="0">
          <mxGeometry x="2510" y="940" as="geometry" />
        </mxCell>
        <mxCell id="edge10" value="" style="html=1;rounded=1;edgeStyle=orthogonalEdgeStyle;dashed=0;startArrow=diamondThinstartSize=12;endArrow=openThin;endSize=12;strokeColor=#595959;exitX=0.500;exitY=1.000;exitDx=0;exitDy=0;entryX=0.500;entryY=0.000;entryDx=0;entryDy=0;" parent="1" source="node0" target="node9" edge="1">
          <mxGeometry width="50" height="50" relative="1" as="geometry">
            <Array as="points">
              <mxPoint x="2288" y="1030" />
              <mxPoint x="2132" y="1030" />
            </Array>
          </mxGeometry>
        </mxCell>
        <mxCell id="label60" value="1" style="edgeLabel;resizable=0;html=1;align=left;verticalAlign=top;strokeColor=default;" parent="edge10" vertex="1" connectable="0">
          <mxGeometry x="2104" y="968" as="geometry" />
        </mxCell>
        <mxCell id="label64" value="1" style="edgeLabel;resizable=0;html=1;align=left;verticalAlign=top;strokeColor=default;" parent="edge10" vertex="1" connectable="0">
          <mxGeometry x="1638" y="1253" as="geometry" />
        </mxCell>
        <mxCell id="label65" value="reglamentService" style="edgeLabel;resizable=0;html=1;align=left;verticalAlign=top;strokeColor=default;" parent="edge10" vertex="1" connectable="0">
          <mxGeometry x="2040" y="960" as="geometry" />
        </mxCell>
        <mxCell id="edge6" value="" style="html=1;rounded=1;edgeStyle=orthogonalEdgeStyle;dashed=0;startArrow=diamondThinstartSize=12;endArrow=openThin;endSize=12;strokeColor=#595959;exitX=0.000;exitY=0.911;exitDx=0;exitDy=0;entryX=0.592;entryY=0.001;entryDx=0;entryDy=0;entryPerimeter=0;" parent="1" source="node0" target="node7" edge="1">
          <mxGeometry width="50" height="50" relative="1" as="geometry">
            <Array as="points">
              <mxPoint x="2002" y="822" />
              <mxPoint x="1680" y="822" />
              <mxPoint x="1680" y="906" />
            </Array>
          </mxGeometry>
        </mxCell>
        <mxCell id="label36" value="1" style="edgeLabel;resizable=0;html=1;align=left;verticalAlign=top;strokeColor=default;" parent="edge6" vertex="1" connectable="0">
          <mxGeometry x="1683" y="813" as="geometry" />
        </mxCell>
        <mxCell id="label40" value="1" style="edgeLabel;resizable=0;html=1;align=left;verticalAlign=top;strokeColor=default;" parent="edge6" vertex="1" connectable="0">
          <mxGeometry x="1683" y="869" as="geometry" />
        </mxCell>
        <mxCell id="label41" value="serviceDocumentService" style="edgeLabel;resizable=0;html=1;align=left;verticalAlign=top;strokeColor=default;" parent="edge6" vertex="1" connectable="0">
          <mxGeometry x="1543" y="869" as="geometry" />
        </mxCell>
        <mxCell id="edge0" value="" style="html=1;rounded=1;edgeStyle=orthogonalEdgeStyle;dashed=0;startArrow=diamondThinstartSize=12;endArrow=openThin;endSize=12;strokeColor=#595959;entryX=0.500;entryY=0.000;entryDx=0;entryDy=0;" parent="1" source="node0" target="node1" edge="1">
          <mxGeometry width="50" height="50" relative="1" as="geometry">
            <Array as="points">
              <mxPoint x="1663" y="510" />
            </Array>
          </mxGeometry>
        </mxCell>
        <mxCell id="label0" value="1" style="edgeLabel;resizable=0;html=1;align=left;verticalAlign=top;strokeColor=default;" parent="edge0" vertex="1" connectable="0">
          <mxGeometry x="2030" y="-30" as="geometry" />
        </mxCell>
        <mxCell id="label4" value="1" style="edgeLabel;resizable=0;html=1;align=left;verticalAlign=top;strokeColor=default;" parent="edge0" vertex="1" connectable="0">
          <mxGeometry x="1378" y="478" as="geometry">
            <mxPoint x="302" y="48" as="offset" />
          </mxGeometry>
        </mxCell>
        <mxCell id="label5" value="serviceDurationService" style="edgeLabel;resizable=0;html=1;align=left;verticalAlign=top;strokeColor=default;" parent="edge0" vertex="1" connectable="0">
          <mxGeometry x="1780" y="500" as="geometry" />
        </mxCell>
        <mxCell id="edge3" value="" style="html=1;rounded=1;edgeStyle=orthogonalEdgeStyle;dashed=0;startArrow=diamondThinstartSize=12;endArrow=openThin;endSize=12;strokeColor=#595959;entryX=0.999;entryY=0.307;entryDx=0;entryDy=0;entryPerimeter=0;" parent="1" target="node4" edge="1">
          <mxGeometry width="50" height="50" relative="1" as="geometry">
            <Array as="points">
              <mxPoint x="2350" y="919" />
              <mxPoint x="2350" y="1400" />
              <mxPoint x="2130" y="1400" />
              <mxPoint x="2130" y="1401" />
            </Array>
            <mxPoint x="2347" y="919" as="sourcePoint" />
          </mxGeometry>
        </mxCell>
        <mxCell id="label18" value="1" style="edgeLabel;resizable=0;html=1;align=left;verticalAlign=top;strokeColor=default;" parent="edge3" vertex="1" connectable="0">
          <mxGeometry x="2277" y="934" as="geometry" />
        </mxCell>
        <mxCell id="label22" value="1" style="edgeLabel;resizable=0;html=1;align=left;verticalAlign=top;strokeColor=default;" parent="edge3" vertex="1" connectable="0">
          <mxGeometry x="2277" y="988" as="geometry" />
        </mxCell>
        <mxCell id="label23" value="serviceService" style="edgeLabel;resizable=0;html=1;align=left;verticalAlign=top;strokeColor=default;" parent="edge3" vertex="1" connectable="0">
          <mxGeometry x="2288" y="988" as="geometry" />
        </mxCell>
        <mxCell id="edge12" value="" style="html=1;rounded=1;edgeStyle=orthogonalEdgeStyle;dashed=0;startArrow=diamondThinstartSize=12;endArrow=openThin;endSize=12;strokeColor=#595959;entryX=1;entryY=0.575;entryDx=0;entryDy=0;entryPerimeter=0;" parent="1" target="node10" edge="1">
          <mxGeometry width="50" height="50" relative="1" as="geometry">
            <Array as="points">
              <mxPoint x="2163" y="-229" />
              <mxPoint x="2161" y="-229" />
              <mxPoint x="2161" y="-298" />
            </Array>
            <mxPoint x="2163" as="sourcePoint" />
            <mxPoint x="1780" y="-460" as="targetPoint" />
          </mxGeometry>
        </mxCell>
        <mxCell id="label72" value="1" style="edgeLabel;resizable=0;html=1;align=left;verticalAlign=top;strokeColor=default;" parent="edge12" vertex="1" connectable="0">
          <mxGeometry x="2030" y="-460" as="geometry" />
        </mxCell>
        <mxCell id="label76" value="1" style="edgeLabel;resizable=0;html=1;align=left;verticalAlign=top;strokeColor=default;" parent="edge12" vertex="1" connectable="0">
          <mxGeometry x="1116" y="739" as="geometry" />
        </mxCell>
        <mxCell id="label77" value="statusService" style="edgeLabel;resizable=0;html=1;align=left;verticalAlign=top;strokeColor=default;" parent="edge12" vertex="1" connectable="0">
          <mxGeometry x="1740" y="830" as="geometry" />
        </mxCell>
        <mxCell id="edge8" value="" style="html=1;rounded=1;edgeStyle=orthogonalEdgeStyle;dashed=0;startArrow=diamondThinstartSize=12;endArrow=openThin;endSize=12;strokeColor=#595959;entryX=0.005;entryY=0.609;entryDx=0;entryDy=0;entryPerimeter=0;" parent="1" source="node4" target="node8" edge="1">
          <mxGeometry width="50" height="50" relative="1" as="geometry">
            <Array as="points">
              <mxPoint x="2360" y="1467" />
              <mxPoint x="2360" y="1506" />
            </Array>
            <mxPoint x="2490" y="1180" as="sourcePoint" />
            <mxPoint x="2564.95" y="1119.9999999999995" as="targetPoint" />
          </mxGeometry>
        </mxCell>
        <mxCell id="label48" value="1" style="edgeLabel;resizable=0;html=1;align=left;verticalAlign=top;strokeColor=default;" parent="edge8" vertex="1" connectable="0">
          <mxGeometry x="2520" y="1120" as="geometry" />
        </mxCell>
        <mxCell id="label53" value="objectTypeService" style="edgeLabel;resizable=0;html=1;align=left;verticalAlign=top;strokeColor=default;" parent="edge8" vertex="1" connectable="0">
          <mxGeometry x="1930" y="1520" as="geometry">
            <mxPoint x="287" y="-64" as="offset" />
          </mxGeometry>
        </mxCell>
      </root>
    </mxGraphModel>
  </diagram>
</mxfile>
